<svg width="35" height="29" viewBox="0 0 35 29" fill="none" xmlns="http://www.w3.org/2000/svg">
<g clip-path="url(#clip0_103_477)">
<path d="M10.1805 14.1763H8.27344V3.86783H10.1805V1.28931H1.27344V3.86783H3.18051V14.1763L5.72697 16.7548H10.1805V14.1763Z" fill="white"/>
<path d="M16.5464 16.7548H20.9999L23.5464 14.1763V3.86783H25.4535V1.28931H16.5464V3.86783H18.4535V14.1763H16.5464V16.7548Z" fill="white"/>
<path d="M25.6149 19.1702L31.186 13.5346H33.7325V10.9561H24.1805V13.5346H25.1368L21.3171 17.4024H15.9128V13.5346H17.8199V10.9561H8.90723V13.5346H10.8199V25.1323H8.90723V27.7109H17.8199V25.1323H15.9128V21.2645H21.3171L25.1368 25.1323H24.1805V27.7109H33.7325V25.1323H31.5029L25.6149 19.1702Z" fill="white"/>
<path d="M34.3662 28.3582H23.5465V24.4904L21 21.9119H16.5465V24.4904H18.4535V28.3582H8.27323V24.4904H10.1803V17.4023H5.40985L2.54647 14.5028V4.50961H0.633836V0.647447H10.8197V4.51524H8.91263V10.3141H17.8253V4.50961H15.9182V0.647447H26.1041V4.51524H24.197V10.3141H34.3773V14.1819H31.5139L26.5822 19.1757L31.8308 24.4904H34.3773V28.3582H34.3662ZM32.1366 23.8486L27.5218 19.1757L31.8197 14.8237H35V9.66667H24.8197V5.15706H26.7268V0H15.2732V5.15706H17.1803V9.66667H9.54091V5.15706H11.448V0H0V5.15706H1.90707V14.8237L5.08737 18.0441H9.54091V23.8429H7.63384V29H19.0874V23.8429H17.1803V22.5537H20.6775L22.9071 24.8113V29H35V23.8429H32.1366V23.8486Z" fill="white"/>
</g>
<defs>
<clipPath id="clip0_103_477">
<rect width="35" height="29" fill="white"/>
</clipPath>
</defs>
</svg>